<?xml version="1.0" standalone="no"?>
<!DOCTYPE svg PUBLIC "-//W3C//DTD SVG 20010904//EN"
 "http://www.w3.org/TR/2001/REC-SVG-20010904/DTD/svg10.dtd">
<svg version="1.0" xmlns="http://www.w3.org/2000/svg"
 width="262.000000pt" height="262.000000pt" viewBox="0 0 262.000000 262.000000"
 preserveAspectRatio="xMidYMid meet">
<metadata>
Created by potrace 1.11, written by Peter Selinger 2001-2013
</metadata>
<g transform="translate(0.000000,262.000000) scale(0.100000,-0.100000)"
fill="#000000" stroke="none">
<path d="M1150 2570 c-531 -75 -955 -461 -1077 -982 -23 -98 -27 -135 -27
-278 0 -143 4 -180 27 -278 112 -479 480 -847 959 -959 98 -23 135 -27 278
-27 143 0 180 4 278 27 479 112 847 480 959 959 23 98 27 135 27 278 0 143 -4
180 -27 278 -111 477 -482 849 -954 958 -122 28 -333 39 -443 24z m500 -735
l0 -335 65 0 65 0 0 -405 0 -405 -65 0 -65 0 0 -70 0 -70 -70 0 -70 0 0 70 0
70 -135 0 -135 0 0 -70 0 -70 -65 0 -65 0 0 70 0 70 -135 0 -135 0 0 135 0
135 65 0 65 0 0 270 0 270 70 0 70 0 0 200 0 200 -70 0 -70 0 0 65 0 65 135 0
135 0 0 -200 0 -200 135 0 135 0 0 270 0 270 70 0 70 0 0 -335z"/>
<path d="M1240 1225 l0 -135 70 0 70 0 0 135 0 135 -70 0 -70 0 0 -135z"/>
<path d="M1510 1225 l0 -135 70 0 70 0 0 135 0 135 -70 0 -70 0 0 -135z"/>
</g>
</svg>
